<svg width="1296" height="144" viewBox="0 0 1296 144" fill="none" xmlns="http://www.w3.org/2000/svg">
<g opacity="0.5">
<path fill-rule="evenodd" clip-rule="evenodd" d="M119 54.7919C119 90.1006 119.013 91.6982 119.325 94.4182C119.504 95.9772 119.738 97.666 119.845 98.1712C120.815 102.774 122.769 106.195 125.801 108.604C128.56 110.796 133.013 112.211 137.976 112.471L140.075 112.582L140.031 101.076C140.007 94.7472 140.007 86.6035 140.031 82.9783L140.075 76.3872L142.493 79.0532C145.914 82.8259 145.982 82.9023 147.38 84.4763C148.072 85.2566 148.679 85.9326 148.727 85.9785C148.803 86.0505 154.598 92.5307 156.028 94.1428C156.305 94.4551 156.607 94.794 156.7 94.8959C156.792 94.9979 158.114 96.4717 159.637 98.1712C161.16 99.8707 162.579 101.449 162.792 101.679C163.004 101.908 164.025 103.053 165.06 104.222L166.943 106.348L177.061 106.352C186.019 106.355 187.731 106.294 187.053 105.993C186.983 105.963 186.36 105.299 185.668 104.518C184.975 103.737 184.333 103.016 184.24 102.914C184.148 102.813 183.609 102.212 183.043 101.578C176.133 93.8419 172.609 89.9052 171.981 89.2194C171.889 89.1187 171.36 88.5179 170.806 87.8846C169.724 86.6491 168.748 85.5646 167.513 84.2273C166.843 83.5019 166.115 82.6835 163.585 79.8113C163.308 79.4968 162.648 78.7765 162.119 78.2106C161.591 77.6447 161.01 76.9941 160.829 76.7652C160.5 76.3498 160.5 76.3476 160.866 75.9421C161.068 75.7184 161.8 74.8978 162.493 74.1187C163.186 73.3393 163.828 72.621 163.921 72.5219C164.058 72.3753 165.779 70.4527 166.439 69.7078C166.721 69.3907 169.45 66.3658 169.63 66.1719C169.722 66.0722 170.289 65.4398 170.89 64.7665C171.49 64.0933 172.057 63.4609 172.149 63.361C172.241 63.2613 172.574 62.879 172.889 62.5116C173.204 62.1443 174.079 61.1672 174.835 60.3404C175.591 59.5136 176.505 58.499 176.866 58.0856C177.227 57.6722 177.563 57.2964 177.612 57.2505C177.661 57.2046 178.943 55.7765 180.461 54.077C181.979 52.3776 183.262 50.9495 183.311 50.9036C183.36 50.8577 183.966 50.1812 184.657 49.4004C185.349 48.6196 186.198 47.68 186.545 47.3126C186.891 46.9451 187.176 46.588 187.177 46.5192C187.178 46.4504 182.623 46.394 177.055 46.394H166.931L166.401 47.0203C165.683 47.8686 165.105 48.5207 164.367 49.3169C164.027 49.6843 162.238 51.6761 160.393 53.743C158.548 55.8099 156.999 57.5386 156.952 57.5845C156.904 57.6305 155.356 59.3592 153.512 61.4261C151.667 63.493 150.118 65.2217 150.068 65.2676C150.018 65.3135 149.041 66.4034 147.897 67.6894C146.753 68.9755 145.47 70.4036 145.045 70.8629C144.62 71.3222 143.706 72.3359 143.013 73.1154C142.321 73.895 141.614 74.6842 141.443 74.8691C141.272 75.0542 140.942 75.4498 140.709 75.7483C140.477 76.047 140.22 76.2911 140.138 76.2911C140.051 76.2911 140.006 64.0867 140.032 47.1456L140.075 18H129.537H119V54.7919ZM119.71 119.018C119.546 119.124 119.507 119.936 119.542 122.485L119.588 125.814H120.175H120.763L120.814 124.648C120.86 123.575 121.134 122.891 121.517 122.891C121.579 122.891 122.101 123.567 122.676 124.394L123.722 125.897H124.561C125.54 125.897 125.596 126.073 123.907 123.825C123.223 122.915 122.634 122.088 122.597 121.988C122.56 121.887 123.095 121.214 123.785 120.491C124.476 119.769 124.995 119.102 124.937 119.011C124.88 118.919 124.519 118.879 124.135 118.922C123.54 118.988 123.288 119.156 122.436 120.05C121.885 120.628 121.322 121.217 121.183 121.359C120.958 121.589 120.922 121.474 120.847 120.291C120.767 119.026 120.744 118.964 120.343 118.922C120.113 118.898 119.828 118.942 119.71 119.018ZM126.169 118.989C126.105 119.053 126.053 120.635 126.053 122.505V125.906L128.53 125.86L131.007 125.814V125.229V124.644L129.118 124.597L127.228 124.55V123.72V122.891H128.824H130.419V122.312V121.734L128.866 121.686L127.312 121.638V120.97V120.302L129.127 120.254L130.942 120.207L130.891 119.586L130.839 118.966L128.562 118.919C127.31 118.894 126.233 118.925 126.169 118.989ZM131.837 119.096C131.792 119.214 132.233 120.774 132.817 122.562L133.88 125.814H134.597H135.313L136.032 123.642C137.166 120.217 137.472 119.243 137.472 119.056C137.472 118.96 137.184 118.882 136.831 118.882C136.108 118.882 136.213 118.666 135.187 122.264C134.932 123.16 134.663 123.893 134.589 123.893C134.516 123.893 134.408 123.686 134.35 123.433C134.064 122.184 133.041 119.118 132.875 119.01C132.569 118.811 131.927 118.865 131.837 119.096ZM138.35 119.018C138.186 119.124 138.147 119.936 138.182 122.485L138.228 125.814H138.815H139.403V122.39V118.966L138.983 118.922C138.752 118.898 138.467 118.942 138.35 119.018ZM140.701 119.022C140.537 119.125 140.498 119.934 140.533 122.485L140.579 125.814H141.166H141.754L141.838 123.475L141.922 121.137L142.578 122.306C142.938 122.949 143.548 124.001 143.933 124.644C144.632 125.811 144.635 125.814 145.377 125.814H146.12L146.166 122.427C146.215 118.749 146.208 118.719 145.285 118.95C144.872 119.053 144.87 119.063 144.824 121.348L144.777 123.642L144.334 122.891C144.09 122.477 143.684 121.763 143.432 121.304C142.582 119.76 142.292 119.301 142.032 119.091C141.741 118.856 141.023 118.818 140.701 119.022ZM149.47 119.096C149.424 119.213 149.408 120.773 149.433 122.561L149.479 125.814L150.109 125.865L150.738 125.917V123.619C150.738 121.182 150.86 120.968 151.296 122.64C151.44 123.191 151.695 124.131 151.863 124.728L152.169 125.814L152.859 125.864C153.406 125.904 153.568 125.851 153.639 125.613C153.689 125.448 153.959 124.458 154.241 123.414C154.522 122.369 154.794 121.473 154.844 121.423C154.895 121.373 154.936 122.359 154.936 123.614V125.897H155.608H156.28V122.491C156.28 118.746 156.319 118.879 155.217 118.885C154.456 118.888 154.254 119.072 154.005 119.989C153.884 120.437 153.623 121.404 153.425 122.139C153.038 123.58 152.839 123.937 152.696 123.45C151.986 121.039 151.578 119.537 151.578 119.334C151.578 119.009 151.219 118.882 150.299 118.882C149.847 118.882 149.52 118.966 149.47 119.096ZM157.497 118.993C157.224 119.102 157.208 123.096 157.476 124.155C157.946 126.013 160.435 126.634 161.834 125.243C162.49 124.59 162.659 123.775 162.66 121.265L162.661 119.055L162.242 118.951C161.363 118.731 161.318 118.849 161.315 121.341C161.312 123.877 161.182 124.357 160.427 124.606C159.811 124.81 158.99 124.477 158.785 123.939C158.7 123.718 158.631 122.535 158.631 121.311C158.631 119.435 158.589 119.069 158.365 118.983C158.063 118.868 157.801 118.871 157.497 118.993ZM163.744 119.096C163.698 119.213 163.682 120.773 163.707 122.561L163.753 125.814H164.34H164.928L165.012 124.517C165.058 123.804 165.153 123.222 165.222 123.223C165.291 123.224 165.745 123.226 166.23 123.227C167.476 123.231 167.601 123.354 167.699 124.68L167.783 125.814L168.435 125.867L169.087 125.92L169.009 124.574C168.953 123.62 168.846 123.137 168.641 122.911C168.366 122.609 168.373 122.571 168.781 122.133C169.699 121.148 169.096 119.469 167.694 119.104C166.626 118.826 163.85 118.82 163.744 119.096ZM170.33 118.993C170.268 119.055 170.218 120.633 170.218 122.501V125.897H170.798H171.379L171.428 124.686L171.477 123.475L172.661 123.392C174.595 123.255 175.351 122.536 175.22 120.957C175.088 119.373 174.276 118.905 171.631 118.889C170.977 118.885 170.391 118.932 170.33 118.993ZM176.17 119.096C176.125 119.213 176.108 120.773 176.134 122.561L176.179 125.814H176.767H177.355L177.403 124.352L177.452 122.891H178.866H180.28L180.329 124.352L180.377 125.814H180.965H181.553L181.598 122.435L181.644 119.057L181.221 118.952C180.407 118.749 180.293 118.924 180.293 120.38V121.721H178.866H177.439V120.403C177.439 119.355 177.384 119.064 177.173 118.983C176.733 118.816 176.258 118.869 176.17 119.096ZM182.238 119.027C182.199 119.091 182.631 119.968 183.2 120.975C184.211 122.764 184.237 122.842 184.321 124.31L184.408 125.814H184.995H185.583L185.667 124.394C185.737 123.212 185.829 122.856 186.213 122.268C186.467 121.879 186.675 121.52 186.675 121.469C186.675 121.419 186.973 120.854 187.337 120.214L188 119.051L187.589 118.948C186.765 118.743 186.453 118.989 185.772 120.387C185.414 121.121 185.068 121.721 185.004 121.721C184.94 121.721 184.651 121.214 184.363 120.594C184.075 119.974 183.768 119.363 183.68 119.236C183.513 118.993 182.363 118.826 182.238 119.027ZM167.603 120.481C167.929 120.805 167.94 121.224 167.633 121.641C167.452 121.889 167.134 121.974 166.206 122.026L165.012 122.093V121.156V120.218H166.176C167.009 120.218 167.414 120.293 167.603 120.481ZM173.587 120.391C173.806 120.508 173.911 120.739 173.91 121.101C173.905 121.988 173.711 122.135 172.534 122.137L171.477 122.139L171.425 121.41C171.396 121.009 171.412 120.577 171.462 120.45C171.569 120.171 173.095 120.129 173.587 120.391ZM147.212 125.155V125.917L147.842 125.865C148.453 125.815 148.473 125.793 148.523 125.104L148.575 124.394H147.893H147.212V125.155Z" fill="white"/>
</g>
<g opacity="0.5">
<path fill-rule="evenodd" clip-rule="evenodd" d="M1142.3 18.1294C1142.3 18.2009 1142.36 18.3197 1142.45 18.3935C1142.58 18.5107 1142.76 18.5338 1143.89 18.5759C1144.6 18.6025 1145.36 18.6557 1145.58 18.6941C1145.79 18.7325 1146.17 18.7663 1146.41 18.7691L1146.86 18.7742V18.4318V18.0895L1146.48 18.045C1146.28 18.0206 1145.25 18.0003 1144.2 18C1142.4 17.9994 1142.3 18.0062 1142.3 18.1294ZM1136.11 18.2486C1136.06 18.3052 1135.96 18.3516 1135.89 18.3516C1135.7 18.3516 1135.64 18.5873 1135.76 18.8259C1135.83 18.9845 1135.89 19.0164 1136.06 18.9974C1136.18 18.9846 1136.58 18.9588 1136.95 18.94C1137.32 18.9211 1137.66 18.8761 1137.7 18.84C1137.73 18.8038 1138.01 18.7742 1138.32 18.7742C1138.94 18.7742 1139.09 18.6893 1139.09 18.3466V18.1403L1137.65 18.143C1136.47 18.1451 1136.19 18.1649 1136.11 18.2486ZM1133.89 18.5843C1133.89 18.6348 1133.99 18.7775 1134.12 18.9013C1134.3 19.0721 1134.42 19.1264 1134.62 19.1264H1134.89V18.8094V18.4925H1134.39C1134.02 18.4925 1133.89 18.5175 1133.89 18.5843ZM1129.98 19.373C1129.32 19.5173 1128.71 19.7282 1127.68 20.1576C1126.85 20.5037 1126.02 20.7355 1124.84 20.954C1124.58 21.001 1124.17 21.1451 1123.91 21.2744C1123.66 21.4037 1123.24 21.5611 1122.99 21.6241C1122.73 21.6872 1122.31 21.8484 1122.06 21.9822C1121.8 22.1161 1121.05 22.4991 1120.38 22.8333C1117.96 24.0473 1115.93 25.2499 1114.02 26.5968C1113.17 27.1925 1112.87 27.3676 1112.69 27.3676C1112.27 27.3676 1110.74 28.4685 1109.27 29.8353C1108.8 30.2716 1108.06 30.913 1107.63 31.2608C1107.19 31.6141 1106.79 32.0004 1106.72 32.1365C1106.62 32.3221 1106.47 32.4329 1106.1 32.6032C1105.64 32.8134 1105.6 32.8551 1105.35 33.3109C1105.2 33.5773 1104.99 33.8437 1104.89 33.9028C1104.78 33.9653 1104.64 34.1465 1104.57 34.3342C1104.49 34.5253 1104.21 34.8923 1103.89 35.2301C1103.6 35.5449 1103.18 36.0803 1102.96 36.42C1102.52 37.1189 1102.12 37.4551 1101.58 37.5946L1101.23 37.6845L1100.74 38.6717C1100.43 39.3036 1100.08 39.8745 1099.78 40.2577C1099.35 40.8095 1099.1 41.2058 1098.26 42.6526C1097.54 43.8825 1096.22 45.3475 1095.19 46.0335C1094.89 46.24 1094.72 46.4143 1094.6 46.6527C1094.37 47.1069 1094.09 47.8891 1093.99 48.3692C1093.9 48.7643 1093.9 48.7709 1093.33 49.1385C1092.88 49.4293 1092.72 49.5789 1092.6 49.8319C1092.21 50.5848 1091.53 52.3752 1091.13 53.6713L1090.86 54.5821L1091.14 55.086C1091.29 55.3631 1091.42 55.6377 1091.42 55.6961C1091.42 55.8623 1090.75 56.7595 1090.47 56.9714C1090.26 57.1288 1090.2 57.2332 1090.13 57.5675C1090.09 57.7904 1089.91 58.5909 1089.74 59.3463C1089.34 61.1018 1088.99 62.9277 1088.68 64.8405C1087.89 69.6384 1087.83 71.3829 1088.29 75.6879C1089.69 88.8829 1093.68 99.0205 1100.67 107.103C1102.65 109.393 1107.2 113.669 1110.18 116.031C1111.88 117.378 1113.85 118.69 1115.8 119.776C1116.29 120.043 1116.83 120.359 1117.03 120.479C1117.3 120.655 1117.45 120.698 1117.76 120.698C1118.12 120.698 1118.17 120.676 1118.43 120.416C1118.6 120.25 1118.78 120.134 1118.88 120.134C1119.13 120.134 1121.08 120.957 1121.21 121.116C1121.28 121.193 1121.35 121.439 1121.38 121.663C1121.49 122.576 1121.76 122.828 1123.04 123.238C1123.72 123.456 1124.11 123.539 1124.57 123.566C1125.08 123.596 1125.21 123.627 1125.27 123.729C1125.4 123.976 1125.89 124.08 1127.23 124.145C1128.25 124.195 1128.7 124.252 1129.47 124.428C1130.75 124.723 1131.17 124.824 1131.93 125.027C1132.38 125.147 1132.76 125.199 1133.22 125.202C1133.63 125.204 1133.97 125.245 1134.13 125.312C1134.27 125.371 1134.78 125.517 1135.26 125.637C1136.17 125.863 1137.62 126.005 1138.98 126C1139.73 125.997 1140.32 125.822 1140.36 125.591C1140.44 125.186 1140.65 125.187 1141.05 125.593C1141.35 125.899 1141.38 125.91 1141.79 125.91C1142.17 125.91 1142.23 125.889 1142.39 125.701C1142.49 125.586 1142.59 125.361 1142.62 125.201L1142.67 124.911L1143 124.955C1143.92 125.078 1144.15 125.08 1144.19 124.965C1144.23 124.867 1144.45 124.853 1145.92 124.853H1147.61L1147.93 125.176L1148.25 125.498L1148.78 125.452C1149.37 125.4 1150.08 125.392 1150.75 125.428C1151.09 125.447 1151.22 125.425 1151.33 125.329C1151.44 125.229 1151.6 125.206 1152.18 125.206C1152.85 125.206 1152.9 125.194 1153.06 125.029C1153.21 124.871 1153.28 124.853 1153.77 124.853C1154.36 124.853 1155.22 124.667 1155.67 124.445C1155.82 124.371 1156.16 124.29 1156.43 124.266C1157.02 124.214 1157.33 124.056 1157.5 123.707C1157.63 123.446 1157.63 123.445 1158.07 123.445C1158.42 123.445 1158.65 123.388 1159.22 123.151C1159.61 122.989 1160.04 122.767 1160.17 122.659C1160.51 122.37 1160.73 122.27 1161.49 122.075C1162.17 121.901 1162.47 121.78 1162.82 121.543C1162.92 121.477 1163.14 121.4 1163.32 121.373C1163.5 121.347 1163.8 121.235 1164 121.127C1164.51 120.843 1165.4 120.465 1166.09 120.237C1166.42 120.129 1166.89 119.915 1167.12 119.761C1167.55 119.475 1168.21 119.163 1168.68 119.011C1168.83 118.964 1168.98 118.865 1169.02 118.791C1169.11 118.636 1169.45 118.444 1169.64 118.444C1169.71 118.444 1169.93 118.286 1170.12 118.093C1170.39 117.821 1170.58 117.71 1170.94 117.594C1171.71 117.347 1172.13 117.122 1172.28 116.87C1172.46 116.576 1172.61 116.458 1173.87 115.681C1174.43 115.328 1175.06 114.919 1175.27 114.773C1175.47 114.626 1175.72 114.485 1175.82 114.459C1175.92 114.434 1176 114.39 1176 114.362C1176 114.234 1176.55 113.791 1176.81 113.704C1177.17 113.587 1177.52 113.157 1177.91 112.37C1178.14 111.903 1178.22 111.81 1178.45 111.718C1178.59 111.659 1178.76 111.611 1178.81 111.611C1178.87 111.611 1179.07 111.397 1179.25 111.136C1179.65 110.58 1179.67 110.567 1180 110.512C1180.21 110.477 1180.28 110.417 1180.43 110.143C1180.83 109.388 1181.98 108.494 1182.9 108.224C1183.17 108.146 1183.28 108.046 1183.74 107.44C1184.31 106.694 1184.36 106.534 1184.17 106.081C1184.07 105.847 1184.07 105.834 1184.26 105.705C1184.54 105.508 1185.12 105.229 1185.45 105.131C1185.64 105.076 1185.79 104.974 1185.86 104.853C1185.92 104.747 1186.12 104.522 1186.3 104.351C1186.6 104.063 1186.62 104.015 1186.62 103.684C1186.62 103.37 1186.67 103.248 1187.03 102.686C1187.43 102.066 1187.45 102.044 1187.76 101.997C1187.99 101.961 1188.15 101.878 1188.35 101.681L1188.62 101.414V100.735C1188.62 100.321 1188.65 99.9661 1188.71 99.8281C1188.9 99.3899 1189.37 98.8846 1189.79 98.6853C1190 98.5803 1190.37 98.3156 1190.6 98.097C1190.94 97.7697 1191.06 97.5978 1191.25 97.1227L1191.47 96.5456L1191.32 96.2422C1191.23 96.0753 1191.08 95.8352 1190.98 95.7088L1190.81 95.4789L1190.97 95.0396C1191.2 94.4125 1191.51 93.8224 1191.87 93.3149L1192.19 92.8746H1192.82C1193.34 92.8746 1193.47 92.851 1193.63 92.7306C1193.84 92.5642 1193.96 92.2087 1193.96 91.7278C1193.96 91.5425 1194.01 91.2771 1194.07 91.1381C1194.13 90.996 1194.18 90.6717 1194.18 90.3979C1194.18 89.8003 1194.35 89.4299 1194.75 89.1564C1194.9 89.0514 1195.03 88.92 1195.03 88.8645C1195.03 88.6679 1195.55 86.5582 1195.79 85.7252C1195.93 85.2603 1196.07 84.7056 1196.1 84.4926C1196.14 84.2795 1196.26 83.8353 1196.38 83.5055C1196.68 82.6536 1196.81 81.822 1196.87 80.4072C1196.91 79.3105 1196.94 79.1512 1197.07 78.9632C1197.67 78.1163 1197.83 77.4084 1197.77 75.8332C1197.73 74.9074 1197.74 74.6011 1197.83 74.3495C1197.9 74.1178 1197.92 73.7485 1197.91 72.976C1197.9 72.3949 1197.93 71.6342 1197.97 71.2855C1198.05 70.6266 1197.98 68.9386 1197.78 66.0027C1197.67 64.5231 1197.63 64.2312 1197.34 63.3434C1197.25 63.043 1197.15 62.5834 1197.14 62.3221C1197.1 61.7648 1196.61 59.4375 1196.35 58.562C1196.16 57.9278 1195.6 56.5418 1195.42 56.2689C1195.36 56.1821 1195.32 55.9812 1195.32 55.8223C1195.32 55.5141 1195.24 55.314 1195.02 55.0807C1194.95 55.0009 1194.79 54.6047 1194.68 54.2002C1194.56 53.7957 1194.36 53.1929 1194.22 52.8605C1193.74 51.6854 1192.04 48.4576 1190.72 46.2097C1189.65 44.4013 1188.83 42.9357 1188.35 41.9834C1187.76 40.8169 1187.42 40.254 1187 39.7275C1186.81 39.4961 1186.52 39.0374 1186.34 38.7081C1185.61 37.3052 1184.82 36.2536 1184.22 35.8785C1183.68 35.5371 1183.37 35.1939 1183.02 34.5328C1182.71 33.9585 1182.26 33.4912 1181.77 33.2461C1181.58 33.1524 1181.38 33.0117 1181.33 32.9335C1181.27 32.8554 1181.02 32.6604 1180.77 32.5002C1180.52 32.34 1179.74 31.7657 1179.04 31.2238C1177.8 30.2629 1174.6 28.0886 1173.92 27.746C1173.73 27.6518 1173.11 27.4012 1172.54 27.1893L1171.5 26.8041H1169.54H1167.57L1166.76 27.2313C1165.25 28.0204 1164.68 28.4056 1163.88 29.195C1162.71 30.343 1161.33 32.2581 1161.29 32.7812C1161.27 32.9338 1161.23 33.1311 1161.18 33.2196C1161.07 33.4238 1161.05 33.67 1161 35.2C1160.97 36.0994 1160.98 36.4905 1161.04 36.6042C1161.09 36.691 1161.14 37.1201 1161.16 37.5577C1161.19 38.4679 1161.36 39.0389 1161.97 40.3281C1162.62 41.6699 1163.15 42.3829 1163.73 42.6791C1163.87 42.7491 1163.96 42.8745 1164.02 43.0549C1164.12 43.3904 1164.49 43.7598 1164.86 43.8837C1165.11 43.9674 1165.15 44.0239 1165.31 44.4163C1165.41 44.6917 1165.58 44.9564 1165.76 45.1262C1166.1 45.4507 1166.96 45.8927 1167.26 45.8927C1167.37 45.8927 1167.78 46.0154 1168.15 46.1655C1168.53 46.3154 1169.08 46.4971 1169.38 46.5693C1169.76 46.6638 1170 46.7726 1170.23 46.9582C1170.6 47.2535 1171.02 47.4738 1171.35 47.5446C1171.6 47.5975 1171.94 47.9414 1171.94 48.1383C1171.94 48.2072 1172.17 48.4257 1172.46 48.6423C1172.74 48.8526 1174.08 50.1067 1175.43 51.4293C1177.15 53.1073 1177.97 53.8605 1178.14 53.9216C1178.32 53.9846 1178.45 54.1082 1178.61 54.3606C1178.83 54.7369 1179.61 55.5027 1179.84 55.574C1179.93 55.6032 1179.99 55.707 1180.02 55.8961C1180.1 56.4003 1180.35 56.9208 1180.75 57.4492C1181.21 58.0653 1181.72 58.9042 1181.89 59.3463C1181.95 59.5207 1182.12 59.7597 1182.26 59.8776C1182.46 60.051 1182.53 60.192 1182.64 60.6158C1182.71 60.9038 1182.87 61.3419 1182.99 61.5892C1183.14 61.9022 1183.2 62.1487 1183.2 62.4006C1183.2 62.8526 1183.39 63.2566 1183.73 63.5607C1183.99 63.7887 1183.99 63.8088 1183.99 64.2651C1183.98 64.8922 1184.02 65.2866 1184.14 65.486C1184.22 65.6271 1184.27 65.9812 1184.37 67.0592C1184.38 67.1755 1184.45 67.3973 1184.52 67.5523C1184.64 67.7893 1184.66 67.9642 1184.64 68.6534C1184.63 69.2313 1184.66 69.5426 1184.73 69.71C1184.81 69.9011 1184.82 70.3444 1184.8 71.9899C1184.78 73.175 1184.73 74.1299 1184.69 74.2644C1184.65 74.3919 1184.63 74.5476 1184.66 74.6104C1184.68 74.6732 1184.67 74.9651 1184.63 75.259C1184.59 75.553 1184.51 76.2531 1184.45 76.8149C1184.16 79.3739 1183.22 83.0411 1182.15 85.7252C1180.89 88.9087 1178.15 93.7025 1175.83 96.7872C1173.36 100.071 1170.09 103.08 1165.71 106.094C1161.13 109.242 1156.16 111.637 1151.77 112.806C1148.05 113.798 1143.4 114.241 1139.13 114.011C1134.59 113.766 1131.88 113.315 1129.57 112.422C1129.05 112.221 1128.63 112.104 1128.44 112.104C1128.25 112.104 1128.02 112.04 1127.82 111.932C1127.65 111.838 1127.19 111.678 1126.8 111.577C1124.85 111.075 1123.13 110.35 1121.28 109.259C1120.87 109.013 1120.36 108.759 1120.16 108.695C1119.94 108.622 1119.77 108.517 1119.71 108.416C1119.6 108.214 1119.28 108.019 1119.05 108.019C1118.78 108.019 1115.96 105.97 1113.86 104.247C1110.73 101.672 1108.64 99.3605 1106.51 96.1125C1104.74 93.4321 1103.47 90.9437 1102.05 87.4367C1100.76 84.2634 1100.04 81.5345 1099.55 77.9771C1099.15 75.1689 1099.16 74.3422 1099.61 68.2567C1099.8 65.7549 1100.1 64.1404 1100.86 61.4594C1102.42 55.9667 1106.13 48.9493 1109.62 44.9102C1111.75 42.4368 1114.02 40.5907 1117.59 38.435C1119.47 37.3018 1121.11 36.0967 1122.61 34.7473C1123.1 34.3107 1123.57 33.8963 1123.66 33.8263C1123.94 33.6014 1129.11 31.8564 1132.75 30.757C1134.85 30.1215 1136.71 29.7312 1138.52 29.545C1138.97 29.4986 1139.37 29.4334 1139.41 29.4002C1139.51 29.3048 1140.9 29.331 1141.76 29.4447C1142.19 29.5017 1142.88 29.5504 1143.29 29.5529C1143.71 29.5553 1144.19 29.5875 1144.36 29.6242C1144.54 29.6611 1144.94 29.708 1145.25 29.7288C1145.56 29.7494 1145.86 29.805 1145.92 29.8524C1146.02 29.9354 1146.21 29.9377 1148.44 29.8818C1148.85 29.8714 1149.01 29.8953 1149.11 29.9825C1149.19 30.0454 1149.37 30.1351 1149.51 30.1819C1149.66 30.2286 1149.81 30.3277 1149.85 30.4021C1149.92 30.5221 1150.01 30.5373 1150.67 30.5373C1151.07 30.5373 1151.57 30.5011 1151.76 30.4569C1152.19 30.3587 1152.34 30.3918 1152.87 30.7106C1153.25 30.9357 1153.34 30.9599 1153.81 30.9599C1154.1 30.9599 1154.35 30.9282 1154.38 30.8895C1154.45 30.7731 1154.81 30.81 1154.93 30.9469C1155 31.0172 1155.09 31.1678 1155.13 31.2815C1155.17 31.4066 1155.35 31.5785 1155.56 31.7171C1155.85 31.9015 1156 31.9461 1156.3 31.9461C1156.69 31.9461 1156.83 31.8622 1156.86 31.615C1156.87 31.5451 1157.06 31.3925 1157.27 31.2747L1157.65 31.0612L1157.68 30.6575C1157.69 30.3188 1157.68 30.2477 1157.57 30.216C1157.5 30.1952 1157.32 30.1163 1157.18 30.0407C1156.86 29.8737 1156.53 29.8649 1156.3 30.0168C1156.13 30.1255 1156.11 30.1212 1155.87 29.9115C1155.55 29.6288 1155.14 29.4254 1154.79 29.3697C1154.55 29.3325 1154.42 29.2356 1153.99 28.7691C1153.56 28.304 1153.44 28.2129 1153.26 28.2129C1153.09 28.2129 1152.96 28.1394 1152.74 27.9103C1152.32 27.4666 1152.27 27.4435 1151.65 27.3355C1151.34 27.2811 1150.86 27.1393 1150.6 27.0204C1150.04 26.7718 1149.72 26.7511 1148.99 26.9161C1148.58 27.0084 1148.43 27.0134 1148.14 26.9443C1147.7 26.8409 1147.01 26.409 1146.76 26.0809C1146.6 25.8708 1146.52 25.8307 1146.21 25.8014C1145.98 25.7794 1145.8 25.7161 1145.7 25.6247C1145.51 25.4364 1145.59 25.2082 1145.86 25.1497C1145.97 25.1254 1146.12 25.0422 1146.19 24.9646C1146.35 24.783 1146.28 24.6549 1145.84 24.374C1145.58 24.2064 1145.5 24.1118 1145.47 23.9162C1145.38 23.382 1145.09 22.8166 1144.61 22.255L1144.38 21.9791L1143.39 21.9264C1140.99 21.798 1140.57 21.7927 1139.96 21.8833C1139.38 21.9688 1139.03 21.9822 1138.24 21.9481C1137.94 21.9352 1137.22 21.988 1135.63 22.1405C1135.21 22.1815 1134.9 22.2528 1134.71 22.3547C1134.53 22.4528 1134.3 22.5074 1134.07 22.5074C1133.64 22.5074 1132.83 22.6394 1132.64 22.7416C1132.56 22.7833 1132.34 22.8416 1132.14 22.8712C1131.95 22.9008 1131.59 22.9536 1131.36 22.9886C1131.12 23.0235 1130.83 23.1 1130.71 23.1586C1130.44 23.2979 1129.83 23.4231 1129.43 23.4231C1129.21 23.4231 1128.97 23.4938 1128.68 23.6382C1128.44 23.7566 1127.92 23.9611 1127.52 24.0928C1126.85 24.3156 1126.75 24.3296 1126.16 24.2924C1125.52 24.2529 1125.51 24.2554 1125.03 24.5069C1124.76 24.6515 1124.45 24.7614 1124.32 24.7614C1124.15 24.7614 1124.02 24.8215 1123.87 24.9799C1123.76 25.1001 1123.46 25.3401 1123.22 25.5133C1122.86 25.7706 1122.69 25.8401 1122.31 25.8934C1122.02 25.9336 1121.74 26.0256 1121.58 26.1325C1121.43 26.2281 1121.2 26.344 1121.06 26.3901C1120.92 26.4362 1120.71 26.5799 1120.58 26.7094C1120.33 26.9553 1120.15 26.9976 1119.91 26.8683C1119.77 26.7932 1119.77 26.7869 1119.97 26.5789C1120.23 26.3069 1121.04 25.7596 1121.61 25.4782C1121.85 25.358 1122.1 25.186 1122.18 25.0959C1122.25 25.0058 1122.41 24.8893 1122.54 24.8371C1122.67 24.7847 1122.9 24.6513 1123.06 24.5404C1123.21 24.4295 1123.4 24.3388 1123.48 24.3388C1123.72 24.3388 1124.04 23.9945 1124.31 23.4595L1124.57 22.9429L1125.06 22.7875C1125.57 22.6239 1125.65 22.626 1126.51 22.8269C1126.79 22.8909 1127.24 22.9482 1127.51 22.9543L1128.01 22.9653L1128.03 22.419C1128.06 21.7453 1128.15 21.6505 1128.81 21.67C1129.3 21.6846 1129.4 21.6444 1129.4 21.4201C1129.4 21.1965 1129.24 21.0879 1128.86 21.0455C1128.57 21.0124 1128.52 21.0286 1128.3 21.2655C1128.16 21.4062 1128 21.5213 1127.94 21.5213C1127.81 21.5213 1127.26 21.31 1127.26 21.2602C1127.26 21.2412 1127.36 21.1337 1127.48 21.0212C1127.65 20.8675 1127.77 20.8169 1127.98 20.8169C1128.29 20.8169 1128.72 20.6299 1128.93 20.4017C1129.04 20.2835 1129.15 20.2534 1129.48 20.2534C1129.7 20.2534 1129.91 20.2217 1129.93 20.183C1129.96 20.1442 1130.05 20.1125 1130.13 20.1125C1130.22 20.1125 1130.41 20.0491 1130.56 19.9717C1130.7 19.8942 1130.93 19.8308 1131.07 19.8308C1131.42 19.8308 1131.71 19.4886 1131.44 19.3874C1131.18 19.2881 1130.39 19.2804 1129.98 19.373ZM1134.25 19.5912C1133.83 19.7029 1133.59 19.863 1133.65 20.0019C1133.7 20.1442 1134.16 20.3238 1134.46 20.3238H1134.74V19.9012C1134.74 19.6688 1134.72 19.4807 1134.69 19.4832C1134.66 19.4858 1134.46 19.5344 1134.25 19.5912ZM1149.23 23.5662C1149.09 23.619 1149.07 23.6839 1149.07 23.9473C1149.07 24.2225 1149.09 24.278 1149.26 24.3644C1149.65 24.5603 1150.02 24.6203 1150.58 24.5749C1151.09 24.5337 1151.13 24.5168 1151.13 24.3771C1151.13 24.1933 1150.86 23.9824 1150.26 23.7003C1149.81 23.49 1149.51 23.4519 1149.23 23.5662ZM1146.7 24.4855C1146.62 24.5722 1146.57 24.734 1146.57 24.9375V25.2545H1146.99C1147.4 25.2545 1147.41 25.2551 1147.95 25.7475C1148.38 26.1306 1148.55 26.2406 1148.72 26.2406C1148.89 26.2406 1148.95 26.1989 1149.03 25.9963C1149.14 25.7506 1149.17 25.1373 1149.1 24.8574C1149.02 24.5726 1148.23 24.337 1147.39 24.3451C1146.93 24.3496 1146.8 24.3751 1146.7 24.4855ZM1149.42 25.497C1149.42 25.8862 1149.45 25.9665 1149.58 26.0605C1149.81 26.2214 1150.13 26.1945 1150.4 25.9905C1150.59 25.8424 1150.63 25.7638 1150.63 25.5436C1150.63 25.1507 1150.48 25.0432 1149.9 25.0432H1149.42V25.497ZM1152.09 25.784C1152.02 25.9516 1152.2 26.5346 1152.38 26.7802C1152.49 26.9137 1152.69 27.0511 1152.9 27.1234C1153.08 27.1898 1153.41 27.323 1153.62 27.4197C1154.03 27.6111 1154.36 27.6064 1154.67 27.4044C1154.8 27.3191 1154.84 27.2313 1154.84 27.0188C1154.84 26.7078 1154.69 26.5224 1154.45 26.5224C1154.06 26.5224 1153.09 26.0809 1152.85 25.7923C1152.72 25.6387 1152.14 25.6325 1152.09 25.784ZM1133.2 26.9155C1133.31 27.1921 1133.24 27.337 1132.85 27.6318C1132.55 27.8646 1132.4 27.9311 1132.19 27.9311C1131.7 27.9311 1131.46 27.419 1131.83 27.1451C1132.24 26.8318 1133.11 26.6865 1133.2 26.9155ZM1119.6 27.7726C1119.42 28.1938 1119.07 28.3798 1118.29 28.4714C1117.96 28.5099 1117.94 28.5013 1117.72 28.2404C1117.48 27.9505 1117.44 27.7902 1117.6 27.7902C1117.65 27.7902 1117.77 27.7279 1117.86 27.6517C1118.01 27.5316 1118.14 27.5129 1118.87 27.5108L1119.71 27.5085L1119.6 27.7726ZM1158.81 30.6547C1158.72 30.7442 1158.76 31.2815 1158.87 31.4373C1158.96 31.5692 1159.05 31.5939 1159.4 31.5939H1159.83V31.2468C1159.83 30.9557 1159.8 30.8762 1159.64 30.7538C1159.46 30.6114 1158.91 30.5471 1158.81 30.6547ZM1155.87 56.5304C1155.09 56.6116 1154.5 56.7828 1153.73 57.1578C1152.46 57.7792 1151.53 58.6984 1150.92 59.945C1150.39 61.0203 1150.31 61.3619 1150.32 62.7273C1150.32 63.8092 1150.33 63.931 1150.52 64.4883C1150.88 65.5604 1151.36 66.3411 1152.11 67.0663C1153.24 68.175 1154.58 68.7536 1156.19 68.8324C1157.5 68.8967 1158.63 68.6217 1159.79 67.9505C1160.35 67.6261 1161.32 66.6939 1161.73 66.0929C1163 64.1979 1163.09 61.6388 1161.95 59.6281C1160.77 57.5445 1158.29 56.28 1155.87 56.5304ZM1132.68 62.6217V68.6441H1135.17H1137.67V67.7636V66.8832H1136.13H1134.6V61.7412V56.5993H1133.64H1132.68V62.6217ZM1124.88 56.7231C1124.7 57.0163 1119.79 68.5413 1119.83 68.5808C1119.9 68.6498 1121.75 68.688 1121.82 68.6218C1121.85 68.5936 1122.16 67.85 1122.52 66.9696L1123.17 65.3687L1125.31 65.3501L1127.45 65.3315L1128.15 66.9526L1128.85 68.5737H1129.87C1130.43 68.5737 1130.9 68.5611 1130.9 68.5458C1130.9 68.5305 1129.78 65.86 1128.41 62.6115L1125.92 56.7049L1125.42 56.6843C1125.15 56.673 1124.9 56.6905 1124.88 56.7231ZM1139.59 62.6921V68.7145L1141.25 68.7141C1143.19 68.7136 1144 68.6159 1144.93 68.2704C1145.84 67.9317 1146.31 67.634 1147 66.9536C1147.89 66.0734 1148.31 65.2863 1148.58 63.9987C1148.84 62.7539 1148.69 61.0973 1148.2 60.0144C1147.68 58.842 1146.67 57.8374 1145.47 57.2976C1144.42 56.8292 1143.32 56.6711 1141.1 56.6702L1139.59 56.6697V62.6921ZM1157.54 58.4685C1158.26 58.6375 1158.94 59.0246 1159.55 59.625C1160.39 60.4563 1160.82 61.4635 1160.82 62.6143C1160.82 63.7908 1160.41 64.7629 1159.55 65.6184C1158.67 66.484 1157.72 66.881 1156.51 66.881C1155.29 66.881 1154.36 66.4864 1153.45 65.5834C1152.57 64.7135 1152.2 63.8458 1152.2 62.6217C1152.2 61.8886 1152.33 61.3343 1152.64 60.711C1153.17 59.6502 1154.31 58.7472 1155.46 58.4696C1156.01 58.3386 1156.98 58.3381 1157.54 58.4685ZM1143.46 58.6044C1144.55 58.7965 1145.53 59.4067 1146.09 60.2388C1146.61 61.0084 1146.74 61.4734 1146.75 62.516C1146.75 63.5915 1146.59 64.1755 1146.06 64.9577C1145.2 66.2255 1143.87 66.8733 1142.1 66.8807L1141.51 66.8832V62.6921V58.5011L1142.21 58.5035C1142.59 58.5049 1143.15 58.5503 1143.46 58.6044ZM1126.06 61.863C1126.45 62.7804 1126.75 63.541 1126.73 63.5533C1126.72 63.5656 1126.08 63.567 1125.32 63.5565L1123.92 63.5374L1124.61 61.8646C1124.99 60.9446 1125.32 60.1926 1125.34 60.1935C1125.36 60.1944 1125.68 60.9457 1126.06 61.863ZM1109.34 72.341C1106.88 72.8793 1105.08 74.6253 1104.48 77.0614C1104.3 77.7908 1104.32 79.0751 1104.51 79.8584C1105.06 82.0346 1106.72 83.7389 1108.93 84.3684C1109.66 84.5785 1111.36 84.5951 1112.08 84.3993C1112.53 84.2787 1113.98 83.6139 1114.24 83.4111C1114.35 83.322 1114.36 83.1858 1114.35 81.9946L1114.33 80.6766L1114.08 81.0079C1113.6 81.647 1112.62 82.2552 1111.72 82.4759C1111.14 82.619 1110.04 82.6241 1109.52 82.4862C1107.42 81.9359 1105.99 79.84 1106.31 77.8025C1106.53 76.3522 1107.34 75.2033 1108.56 74.5832C1109.35 74.1852 1109.71 74.1023 1110.62 74.1072C1111.28 74.1108 1111.48 74.1394 1111.89 74.2919C1112.61 74.5649 1113.12 74.891 1113.77 75.5038L1114.36 76.0593L1114.33 75.6447C1114.31 75.4166 1114.27 74.823 1114.25 74.3256L1114.21 73.4211L1113.78 73.1515C1113.22 72.7922 1112.45 72.4845 1111.78 72.348C1111.12 72.2142 1109.93 72.2108 1109.34 72.341ZM1120.92 72.3414C1118.9 72.7384 1117.1 74.2368 1116.36 76.1292C1115.73 77.7104 1115.8 79.5171 1116.53 81.0716C1117.14 82.3756 1118.42 83.5721 1119.77 84.1116C1120.65 84.466 1121.03 84.5281 1122.24 84.5236C1123.28 84.5197 1123.43 84.5034 1123.98 84.3237C1126.04 83.6577 1127.47 82.2491 1128.16 80.1959C1128.34 79.639 1128.36 79.5159 1128.36 78.4349C1128.37 77.0977 1128.29 76.7596 1127.79 75.7231C1126.92 73.9346 1125.32 72.7104 1123.35 72.336C1122.72 72.2146 1121.55 72.2172 1120.92 72.3414ZM1152.25 72.3475C1151.06 72.609 1150.13 73.1005 1149.26 73.9188C1148.6 74.5394 1148.23 75.0529 1147.86 75.8556C1147.44 76.7439 1147.32 77.3254 1147.32 78.4349C1147.33 79.5588 1147.44 80.0666 1147.89 81.0151C1148.27 81.8102 1148.61 82.2696 1149.3 82.9173C1150.56 84.1002 1152.05 84.6271 1153.89 84.5452C1156.96 84.4095 1159.38 82.137 1159.75 79.0578C1159.89 77.8926 1159.69 76.7968 1159.12 75.6526C1158.34 74.0957 1157.08 73.0342 1155.34 72.4808C1154.82 72.3168 1154.58 72.2845 1153.73 72.2637C1153.02 72.2463 1152.6 72.27 1152.25 72.3475ZM1130.4 78.3997V84.3517H1131.39H1132.39V81.9322V79.5127L1133.19 79.4649C1134.52 79.3851 1135.22 79.1346 1135.93 78.4854C1136.73 77.7539 1137.06 76.8602 1137.01 75.6174C1136.95 74.4513 1136.56 73.6767 1135.72 73.1103C1134.94 72.5781 1134.2 72.4477 1131.96 72.4477H1130.4V78.3997ZM1139.23 78.3922V84.3517H1140.23H1141.23V81.9324V79.5131L1141.99 79.469C1143.41 79.3877 1144.24 79.0576 1144.95 78.2941C1145.56 77.6414 1145.86 76.8304 1145.86 75.8259C1145.86 74.1688 1145.03 73.0522 1143.46 72.6135C1143.14 72.5251 1142.61 72.491 1141.14 72.4657L1139.23 72.4327V78.3922ZM1161.82 78.3997V84.3517H1164.35H1166.88V83.4712V82.5908H1165.31H1163.75V77.5192V72.4477H1162.78H1161.82V78.3997ZM1173.04 72.5219C1173.02 72.566 1171.84 75.222 1170.44 78.4241L1167.88 84.246L1168.33 84.2906C1168.57 84.3151 1169.04 84.3383 1169.38 84.3421L1169.98 84.349L1170.63 82.7479L1171.29 81.1468L1173.49 81.1302L1175.68 81.1137L1176.36 82.6799L1177.04 84.246L1178.09 84.2655C1178.67 84.2763 1179.14 84.2763 1179.14 84.2655C1179.14 84.2548 1178 81.5993 1176.62 78.3645L1174.1 72.4829L1173.59 72.4624C1173.28 72.4493 1173.08 72.471 1173.04 72.5219ZM1123.57 74.298C1124.28 74.5531 1124.8 74.8887 1125.29 75.4065C1125.81 75.9481 1126.22 76.6783 1126.38 77.3511C1126.53 78.0122 1126.48 79.1481 1126.27 79.7537C1125.85 80.9292 1124.8 81.9666 1123.61 82.3815C1122.99 82.5967 1121.77 82.6513 1121.14 82.4916C1119.9 82.1787 1118.93 81.4105 1118.32 80.2601C1117.96 79.5796 1117.83 78.9721 1117.88 78.118C1117.93 76.9736 1118.31 76.1443 1119.13 75.3302C1119.69 74.7827 1120.34 74.4016 1121.07 74.207C1121.8 74.0108 1122.89 74.0504 1123.57 74.298ZM1154.84 74.2645C1156.19 74.7362 1157.21 75.7098 1157.62 76.9174C1158.16 78.5381 1157.77 80.1844 1156.55 81.3911C1155.73 82.1943 1154.75 82.5908 1153.56 82.5908C1152.3 82.5908 1151.37 82.2099 1150.49 81.331C1149.87 80.7146 1149.55 80.1699 1149.35 79.3791C1148.92 77.7253 1149.56 75.9432 1150.94 74.9387C1151.52 74.518 1151.82 74.3691 1152.44 74.2029C1153.1 74.0268 1154.25 74.0563 1154.84 74.2645ZM1133.99 74.3786C1134.49 74.4967 1134.73 74.6577 1134.94 75.038C1135.28 75.6295 1135.21 76.5368 1134.79 77.0027C1134.42 77.4249 1134.1 77.5397 1133.19 77.5756L1132.39 77.6074V75.9433V74.2791L1132.98 74.2802C1133.3 74.2808 1133.76 74.3251 1133.99 74.3786ZM1142.7 74.3569C1142.95 74.3996 1143.26 74.5039 1143.38 74.5885C1144.07 75.0431 1144.2 76.3079 1143.64 76.9824C1143.28 77.4182 1142.95 77.5392 1142.03 77.5756L1141.23 77.6074V75.9433V74.2791H1141.74C1142.02 74.2791 1142.45 74.3141 1142.7 74.3569ZM1174.24 77.6083C1174.62 78.5087 1174.93 79.2691 1174.93 79.298C1174.93 79.327 1174.29 79.3506 1173.51 79.3506C1172.73 79.3506 1172.08 79.3282 1172.08 79.3009C1172.08 79.2081 1173.47 75.9696 1173.51 75.9704C1173.53 75.9707 1173.86 76.7078 1174.24 77.6083ZM1192.35 83.9702C1192.42 84.2238 1192.32 84.9923 1192.21 85.1598C1192.15 85.2362 1192.11 85.4436 1192.11 85.6206C1192.11 85.8669 1191.98 86.2309 1191.57 87.1721C1191.27 87.8485 1190.61 89.4162 1190.1 90.6559C1189.17 92.9254 1188.38 94.5263 1187.1 96.7271C1186.8 97.2383 1186.48 97.8031 1186.39 97.9824C1186.27 98.2221 1186.18 98.3186 1186.04 98.3465C1185.89 98.3767 1185.71 98.5878 1185.18 99.3803C1184.82 99.9281 1184.28 100.65 1184 100.984C1183.71 101.319 1183.16 102.016 1182.78 102.534C1182.4 103.052 1181.95 103.571 1181.79 103.687C1181.57 103.851 1181.51 103.933 1181.54 104.054C1181.57 104.18 1181.41 104.364 1180.7 105.04C1180.21 105.497 1179.16 106.504 1178.35 107.279C1177.55 108.054 1176.3 109.162 1175.57 109.742C1174.28 110.778 1172.8 112.007 1171.94 112.772C1171.69 112.986 1171.46 113.161 1171.42 113.161C1171.17 113.161 1170.39 113.626 1170.01 114.006C1169.63 114.373 1169.48 114.467 1168.84 114.714C1168.44 114.87 1167.82 115.176 1167.48 115.393C1167.13 115.611 1166.78 115.784 1166.69 115.779C1166.6 115.773 1166.49 115.84 1166.43 115.943C1166.26 116.195 1165.99 116.351 1165.61 116.409C1165.02 116.501 1164.58 116.707 1164.19 117.081C1163.93 117.331 1163.74 117.452 1163.56 117.481C1163.42 117.503 1163.25 117.571 1163.18 117.631C1163.11 117.692 1162.87 117.789 1162.64 117.849C1162.4 117.908 1162.01 118.05 1161.76 118.165C1161.23 118.408 1161.11 118.422 1161.11 118.239C1161.11 118.153 1161.23 118.035 1161.45 117.911C1161.63 117.805 1161.9 117.631 1162.04 117.525C1162.17 117.42 1162.49 117.281 1162.75 117.217C1163.24 117.093 1163.59 116.91 1165.1 115.964C1165.63 115.633 1166.8 114.944 1167.69 114.432C1169.56 113.366 1170.82 112.563 1172.07 111.631C1172.56 111.272 1173.09 110.916 1173.26 110.841C1173.78 110.617 1174.22 110.287 1175.01 109.536C1175.42 109.144 1176.01 108.603 1176.32 108.333C1176.64 108.064 1177.38 107.384 1177.97 106.822C1178.56 106.26 1179.37 105.483 1179.79 105.096C1180.36 104.559 1180.6 104.273 1180.8 103.898C1180.98 103.554 1181.16 103.335 1181.38 103.174C1181.56 103.046 1181.84 102.777 1182 102.575C1182.27 102.233 1182.7 101.453 1182.7 101.292C1182.7 101.253 1182.85 101.132 1183.02 101.022C1183.44 100.759 1183.59 100.573 1184.2 99.5535C1184.49 99.0796 1185.06 98.1675 1185.48 97.5266C1185.9 96.8857 1186.47 95.9814 1186.76 95.517C1187.04 95.0526 1187.38 94.5771 1187.51 94.4604C1187.79 94.2074 1187.98 93.8365 1188.15 93.2621C1188.22 93.0296 1188.41 92.598 1188.59 92.3029C1188.96 91.664 1189.39 90.7159 1189.62 89.9867C1189.72 89.6962 1189.9 89.2841 1190.03 89.071C1190.48 88.3408 1190.91 87.3618 1191.05 86.7902C1191.25 85.9435 1191.89 84.1289 1192.06 83.9467C1192.25 83.743 1192.3 83.7471 1192.35 83.9702ZM1160.42 118.399C1160.31 118.53 1160.11 118.693 1159.97 118.76C1159.64 118.924 1158.84 119.148 1158.6 119.148H1158.4L1158.59 118.903C1158.85 118.58 1159.84 118.19 1160.46 118.168L1160.63 118.162L1160.42 118.399Z" fill="white"/>
</g>
<g opacity="0.5">
<path fill-rule="evenodd" clip-rule="evenodd" d="M804.332 23.2286C802.19 23.5798 798.42 24.7813 796.784 25.6347L795.728 26.1857L798.349 26.3373C804.749 26.7078 810.497 28.5271 815.19 31.6678L816.824 32.762L820.821 32.845C824.263 32.9166 825.094 33.0125 826.821 33.5387C827.923 33.8748 828.863 34.1871 828.908 34.2327C828.954 34.2784 826.896 34.3159 824.335 34.3159C821.774 34.3159 819.597 34.3977 819.496 34.4977C819.396 34.5977 819.793 35.0744 820.379 35.5571C822.422 37.24 825.879 40.8959 827.535 43.1267C830.431 47.0254 832.497 51.0849 833.512 54.8694C833.742 55.7288 834.005 56.5187 834.095 56.6249C834.186 56.7309 834.452 55.8655 834.686 54.7018C835.238 51.9633 835.248 47.5223 834.709 44.6835C832.709 34.1457 824.459 25.7022 813.979 23.4678C811.611 22.963 806.697 22.8411 804.332 23.2286ZM794.753 27.8968C793.653 29.1095 791.737 34.4277 791.208 37.7372C790.837 40.0509 790.907 45.2895 791.342 47.7778C791.879 50.8515 793.165 54.502 794.87 57.7952C796.573 61.0825 797.033 61.6491 796.746 60.1022C796.275 57.5709 796.216 53.5549 796.611 50.8738C797.855 42.4219 802.428 36.6665 809.763 34.32C810.491 34.0868 811.176 33.8159 811.284 33.7178C811.593 33.437 808.461 31.3339 805.506 29.8377C802.437 28.284 799.44 27.4648 796.824 27.4648C795.514 27.4648 795.059 27.5597 794.753 27.8968ZM790.957 29.4821C786.964 32.9142 783.918 37.8977 782.532 43.2676C781.897 45.7275 781.662 50.5433 782.048 53.1787C783.13 60.564 787.087 67.0918 793.014 71.2674C794.519 72.3278 797.7 74.1007 798.097 74.1007C798.179 74.1007 797.776 73.5511 797.2 72.8797C793.504 68.5654 790.369 63.2749 788.95 58.956C785.909 49.7024 786.916 39.2261 791.717 30.1692C792.366 28.9463 792.862 27.9456 792.821 27.9456C792.78 27.9456 791.941 28.6372 790.957 29.4821ZM812.412 36.5681C810.138 37.2946 807.554 38.8115 805.837 40.4274C803.952 42.2012 802.534 44.7943 802.037 47.374C801.613 49.5803 801.889 53.9412 802.647 56.9961C803.83 61.7667 806.831 68.42 810.093 73.4997L811.636 75.9036L812.686 75.8368C813.264 75.8002 814.496 75.5639 815.423 75.3117C819.74 74.1381 823.498 72.0181 826.902 68.8354L829.062 66.8151L828.913 65.2295C827.97 55.2215 824.666 47.4619 818.064 39.7524C815.847 37.1629 814.679 36.1071 814.061 36.1318C813.883 36.1388 813.141 36.3352 812.412 36.5681ZM731.724 102.031C727.021 108.529 722.009 115.45 720.587 117.411L718 120.977H719.67H721.339L725.749 114.847L730.158 108.717H735.152L740.146 108.717L740.21 114.787L740.274 120.857L741.781 120.928L743.289 121L743.226 105.664L743.165 90.327L741.719 90.2715L740.274 90.2162L731.724 102.031ZM868.533 102.842C868.533 110.932 868.449 115.425 868.3 115.332C868.171 115.253 863.341 109.622 857.565 102.818L847.063 90.4473H845.755H844.447V105.592V120.737H846.01H847.574L847.636 108.198L847.699 95.6606L851.466 100.085C853.537 102.519 858.338 108.161 862.132 112.623L869.032 120.737H870.385H871.738L871.582 118.032C871.496 116.545 871.425 109.676 871.425 102.767L871.423 90.2069H869.978H868.533V102.842ZM875.759 105.472V120.737H877.325H878.89V114.727V108.717H883.901H888.911L893.234 114.712L897.557 120.708L899.203 120.722C900.108 120.73 900.813 120.641 900.768 120.524C900.724 120.407 895.756 113.542 889.729 105.269L878.77 90.2266L877.264 90.2167L875.759 90.2069V105.472ZM747.38 105.712V120.977L756.954 120.968L766.528 120.958L767.371 119.831C767.835 119.211 768.25 118.621 768.294 118.518C768.339 118.416 764.355 118.333 759.443 118.333H750.511V104.39V90.4473H748.945H747.38V105.712ZM762.244 91.643C761.752 92.3007 761.35 92.8956 761.35 92.9651C761.35 93.0346 764.005 93.0916 767.251 93.0916H773.152V107.046V121L774.657 120.928L776.163 120.857L776.065 106.974L775.967 93.0916H781.132H786.296L787.191 91.8958C787.683 91.2381 788.085 90.6432 788.085 90.5737C788.085 90.5042 782.472 90.4473 775.612 90.4473H763.138L762.244 91.643ZM791.267 100.123C791.301 105.445 791.361 112.26 791.402 115.268L791.475 120.737H801.439H811.403L812.25 119.595L813.098 118.453L803.723 118.39L794.348 118.327V112.801V107.275H802.486H810.623L811.518 106.079C812.01 105.421 812.412 104.826 812.412 104.757C812.412 104.687 808.348 104.63 803.38 104.63H794.348V98.8609V93.0916H802.606H810.864L811.759 91.8958C812.251 91.2381 812.653 90.6432 812.653 90.5737C812.653 90.5042 807.828 90.4473 801.93 90.4473H791.206L791.267 100.123ZM817.229 105.577V120.737H818.795H820.361V113.985V107.233L824.275 107.316C828.858 107.413 829.184 107.527 830.851 109.626C831.452 110.382 833.321 113.191 835.004 115.868L838.064 120.736L839.838 120.736L841.612 120.737L841.257 120.196C841.062 119.898 839.357 117.245 837.469 114.3C835.266 110.865 833.564 108.486 832.721 107.665L831.407 106.384L832.647 106.237C835.398 105.912 837.79 104.167 839.08 101.544C839.65 100.385 839.748 99.8946 839.736 98.2366C839.725 96.6188 839.611 96.0625 839.06 94.9399C838.25 93.2863 836.663 91.8478 834.848 91.1199C833.544 90.597 833.152 90.5713 825.359 90.4963L817.229 90.4182V105.577ZM833.976 93.8127C835.157 94.4043 835.853 94.9399 836.322 95.6171C837.133 96.7878 837.412 98.6357 836.978 99.9494C836.552 101.237 834.963 102.86 833.256 103.751L831.802 104.51L826.081 104.586L820.361 104.662V98.735V92.8081L826.329 92.8896L832.296 92.9714L833.976 93.8127ZM882.864 100.342C884.984 103.268 886.754 105.754 886.798 105.867C886.843 105.98 885.081 106.073 882.884 106.073H878.89L878.889 103.248C878.888 101.695 878.818 99.2066 878.732 97.7191C878.642 96.1546 878.667 95.0164 878.793 95.0185C878.913 95.0207 880.745 97.4162 882.864 100.342ZM740.154 100.664V106.073H736.18C733.994 106.073 732.205 106.009 732.205 105.932C732.205 105.751 739.921 95.2551 740.054 95.2551C740.109 95.2551 740.154 97.689 740.154 100.664ZM903.543 115.671C902.672 116.201 902.139 117.503 902.367 118.54C902.45 118.918 902.845 119.539 903.245 119.921C903.848 120.499 904.176 120.616 905.178 120.616C906.265 120.616 906.468 120.526 907.21 119.718C908.412 118.409 908.222 116.592 906.778 115.583C906.044 115.07 904.46 115.113 903.543 115.671ZM906.384 115.948C907.145 116.354 907.576 117.625 907.297 118.636C906.849 120.256 905.054 120.756 903.717 119.633C903.094 119.11 902.976 118.841 902.976 117.94C902.976 117.123 903.117 116.728 903.568 116.278C904.212 115.635 905.513 115.483 906.384 115.948ZM904.181 117.958C904.181 118.849 904.285 119.535 904.421 119.535C904.554 119.535 904.662 119.21 904.662 118.813C904.662 118.417 904.765 118.092 904.889 118.092C905.014 118.092 905.309 118.417 905.544 118.813C905.778 119.21 906.055 119.535 906.16 119.535C906.447 119.535 906.386 119.215 905.99 118.651C905.672 118.198 905.674 118.125 906.007 117.998C906.249 117.905 906.354 117.622 906.304 117.192C906.236 116.599 906.121 116.522 905.204 116.456L904.181 116.382V117.958ZM905.789 117.035C905.939 117.424 905.515 117.841 904.963 117.848C904.798 117.85 904.662 117.581 904.662 117.251C904.662 116.807 904.79 116.65 905.152 116.65C905.421 116.65 905.707 116.823 905.789 117.035Z" fill="white"/>
</g>
<g opacity="0.5">
<path fill-rule="evenodd" clip-rule="evenodd" d="M476.46 12.4733C452.924 15.9217 435.74 37.6275 438.242 60.746C439.377 71.2333 443.144 79.3328 450.393 86.8707C456.792 93.5257 464.728 98.0457 473.437 99.9965C478.161 101.054 488.85 101.065 493.213 100.015C506.644 96.7858 517.274 88.5109 523.391 76.5231C524.521 74.3088 526.014 70.6744 526.708 68.4467C527.861 64.7477 527.973 63.7153 527.999 56.5504C528.031 47.4568 527.359 44.3342 523.828 37.1669C515.255 19.767 495.822 9.63597 476.46 12.4733ZM480.533 15.7828C476.317 19.8926 476.83 23.1605 482.178 26.2467C488.758 30.043 489.778 32.5837 487.665 39.9046C485.569 47.1646 488.362 50.6661 498.378 53.335C506.689 55.5498 509.895 57.7452 510.241 61.4599C510.396 63.1204 510.362 63.2303 510.05 62.0885C509.458 59.9203 508.682 58.7536 507.042 57.5657C505.082 56.1465 503.636 55.6213 498.493 54.4606C491.387 52.8569 487.153 50.4261 485.253 46.8586C484.09 44.678 484.295 40.8502 485.75 37.5269C487.956 32.4927 487.16 29.8427 482.749 27.525C478.818 25.4593 477.27 24.1583 476.93 22.6349C476.436 20.4215 477.122 18.4984 479.197 16.2831L481.127 14.222L479.262 14.9863C476.891 15.9577 476.314 16.5369 475.512 18.754L474.86 20.5525L474.84 18.694C474.804 15.439 476.54 13.9442 480.42 13.8897L482.505 13.8606L480.533 15.7828ZM496.519 15.3065C499.77 16.3362 507.166 19.8317 507.166 20.3384C507.166 20.5184 506.354 20.793 505.361 20.9494C501.908 21.4931 499.616 24.2802 499.729 27.7983C499.765 28.9285 499.872 29.2862 499.977 28.629C500.607 24.6909 501.588 23.5524 504.353 23.5524C507.22 23.5524 508.267 24.8317 508 28.0087C507.543 33.4227 502.703 36.3773 497.274 34.5552C494.352 33.575 491.812 31.531 491.203 29.6706C490.42 27.2786 490.029 26.8988 487.996 26.5605C485.315 26.1147 483.431 24.7777 482.79 22.8656C482.119 20.8627 482.493 18.4102 483.618 17.4447C484.749 16.4742 486.572 15.5853 486.857 15.8659C486.988 15.9947 486.433 16.4368 485.625 16.8485C483.646 17.8555 483.069 19.4477 483.94 21.4977C484.312 22.3741 484.772 23.0908 484.963 23.0908C485.155 23.0908 486.096 22.2361 487.057 21.1913C488.515 19.6046 488.857 18.8362 489.129 16.5309L489.454 13.7711L491.531 14.0775C492.673 14.246 494.918 14.7993 496.519 15.3065ZM471.994 16.2836C471.496 17.3621 471.085 18.9825 471.079 19.8833C471.066 22.07 470.424 22.658 468.737 22.0308C467.593 21.6057 467.222 21.7045 465.926 22.7775C464.239 24.1754 463.464 24.3102 462.652 23.347C461.89 22.4424 462.224 20.511 463.111 20.7007C463.653 20.817 463.68 20.7265 463.236 20.2821C462.411 19.4546 461.224 20.5636 461.224 22.1623C461.224 23.7245 462.859 25.8599 464.055 25.8599C464.543 25.8599 465.684 25.5119 466.589 25.0869C468.129 24.3642 468.292 24.3642 469.103 25.0869C470.309 26.1617 471.197 26.0542 472.405 24.6872C473.559 23.3793 474.395 23.5168 474.013 24.9521C473.612 26.464 472.189 26.878 465.948 27.2984C458.497 27.8006 455.017 28.4347 452.333 29.78C448.001 31.9514 446.249 35.175 446.234 41.0048C446.223 45.0915 445.663 46.8693 444.522 46.4382C444.133 46.2914 443.956 46.3768 444.117 46.633C444.585 47.3788 446.156 47.1522 446.636 46.2693C446.881 45.8184 447.312 43.8201 447.593 41.8291C448.589 34.7832 450.829 31.6745 455.599 30.7192L457.24 30.3906L455.08 31.7649C452.091 33.6677 450.774 36.4211 450.801 40.7113C450.839 46.6625 454.175 50.787 459.239 51.1438C461.471 51.3011 462.147 51.1632 463.217 50.3315C463.926 49.7805 464.506 49.1011 464.506 48.8214C464.506 48.5418 463.967 48.8118 463.308 49.4214C460.919 51.6302 457.174 50.529 455.375 47.0894C453.735 43.9507 454.186 39.0439 456.409 35.8701C459.192 31.896 460.502 32.525 463.807 39.4223C467.408 46.9371 468.171 47.2422 470.897 42.2532L472.367 39.5649L472.679 42.2888C473.473 49.2142 470.536 59.0328 467.193 60.6269C465.465 61.4507 463.291 60.871 462.838 59.4653C462.379 58.0438 463.292 57.4319 464.836 58.1246C466.126 58.7033 466.127 58.7024 465.245 57.7429C464.182 56.5868 462.32 56.4968 461.144 57.5449C459.925 58.6313 459.986 61.5979 461.245 62.4665C462.085 63.0457 462.109 63.1634 461.441 63.4158C460.361 63.8238 459.269 63.7758 456.546 63.2012C453.621 62.5837 451.38 60.8475 451.38 59.1994C451.38 56.3819 454.954 55.2041 456.268 57.5888C456.927 58.785 456.969 58.7984 456.987 57.8195C457.031 55.3435 453.428 54.0965 450.536 55.5881C449.066 56.3459 446.58 58.8501 445.785 60.374C445.32 61.2661 444.99 61.3833 443.645 61.135C442.344 60.8946 441.845 61.0496 440.89 61.9897L439.723 63.138L439.394 60.1123C437.638 43.9682 446.913 26.956 461.997 18.6511C464.301 17.3829 471.767 14.396 472.804 14.3281C472.856 14.3249 472.491 15.205 471.994 16.2836ZM510.447 23.0908C510.963 23.5985 511.378 24.3775 511.371 24.8215C511.357 25.5719 511.321 25.5696 510.861 24.7901C510.588 24.3286 509.697 23.5505 508.882 23.0613C507.552 22.2624 507.508 22.1711 508.455 22.1697C509.035 22.1687 509.931 22.5832 510.447 23.0908ZM480.21 28.2976C481.499 28.9326 482.971 29.9064 483.481 30.4621C484.864 31.9685 484.707 34.6102 483.12 36.5305C478.353 42.2975 478.212 43.6604 481.856 48.7979C483.627 51.2947 484.387 52.8389 484.551 54.271C484.77 56.1825 484.675 56.3681 482.26 58.7181C480.875 60.0666 476.511 63.3184 472.562 65.944C463.568 71.9228 460.193 74.678 458.615 77.3294C456.495 80.8895 457.317 82.6516 462.631 85.9454L465.209 87.5431V82.8925C465.209 78.6244 465.321 78.0429 466.567 75.8286C467.703 73.8118 470.254 70.7829 469.589 72.2417C469.474 72.4956 469 73.5243 468.537 74.528C465.735 80.6006 466.782 88.0831 471.235 93.8173C472.172 95.0228 472.795 96.0095 472.621 96.0095C472.446 96.0095 470.602 94.2945 468.522 92.1988C466.259 89.9185 463.376 87.5939 461.343 86.4101C457.747 84.3162 456.537 82.7835 456.537 80.3228C456.537 76.5051 460.088 72.9649 471.493 65.4128C479.666 60.0006 483.028 57.1489 483.522 55.2101C483.862 53.8801 483.002 52.0428 480.291 48.2999C477.325 44.2059 477.357 40.3758 480.388 36.5997C483.894 32.2343 483.954 31.0694 480.762 29.4915C478.187 28.2187 475.757 26.405 475.757 25.7561C475.757 25.4709 476.232 25.6661 476.812 26.1899C477.391 26.7142 478.921 27.6621 480.21 28.2976ZM514.332 28.173C518.408 31.3288 513.852 37.6206 506.513 38.9737L504.689 39.3097L506.406 40.703C508.438 42.3515 509.525 44.2437 509.467 46.0279C509.427 47.2532 509.401 47.2366 508.962 45.7049C508.235 43.1652 505.907 41.141 501.189 38.946C496.638 36.8291 495.651 36.1613 498.61 37.2011C502.704 38.6391 507.895 37.3709 511.664 34.012C513.947 31.9768 514.469 30.2941 513.261 28.8611C512.505 27.9639 510.728 27.9709 509.967 28.8736C509.497 29.4306 509.49 29.8363 509.935 30.7972C510.436 31.8799 510.418 31.9486 509.77 31.4193C508.715 30.5576 508.875 28.7956 510.083 27.963C511.493 26.9902 512.895 27.0598 514.332 28.173ZM475.486 28.6091C477.961 29.1745 479.71 30.5327 479.891 32.0308C479.998 32.9196 479.441 34.0485 477.894 36.0741C476.714 37.6197 475.619 39.3928 475.461 40.0144C474.969 41.9431 475.554 44.8714 477.144 48.4342C479.894 54.5968 478.61 58.9982 473.267 61.7299C471.3 62.7355 470.187 62.9774 467.45 62.9926C464.452 63.0092 463.943 62.8828 462.996 61.8845C462.409 61.2652 462.276 61.0141 462.702 61.327C465.362 63.281 469.495 62.7014 472.699 59.9245C476.919 56.2679 477.719 52.6289 475.548 46.9634C474.269 43.6258 474.007 40.2793 474.896 38.6364C475.196 38.0821 476.274 36.5407 477.292 35.211C480.337 31.2328 478.989 29.5783 471.999 28.7185C468.514 28.2893 468.508 28.2861 471.069 28.2381C472.487 28.2113 474.475 28.3784 475.486 28.6091ZM471.718 31.2827C471.012 34.21 469.178 39.5497 468.622 40.2978C468.086 41.0173 467.707 40.6426 465.092 36.8069C463.481 34.4435 462.162 32.1683 462.162 31.7506C462.162 30.8101 464.942 30.1326 469.085 30.0629L472.024 30.0135L471.718 31.2827ZM517.95 34.6217C517.625 35.3956 516.203 37.0682 514.791 38.3387C511.871 40.9661 511.905 41.1918 515.513 43.2736C517.725 44.5502 521.488 44.9531 523.339 44.1122C524.175 43.7319 524.207 43.7698 523.635 44.4625C521.511 47.0322 515.895 46.2144 512.034 42.7729L509.78 40.7639L511.637 39.8991C513.889 38.8496 517.376 35.4233 517.772 33.8699C517.931 33.2482 518.169 32.8463 518.302 32.9769C518.434 33.1075 518.276 33.8477 517.95 34.6217ZM522.628 37.5292C522.632 37.7286 522.228 37.6769 521.729 37.4138C520.649 36.8448 520.292 36.8139 520.292 37.2883C520.292 37.4817 520.766 37.8453 521.346 38.0959C521.984 38.371 522.458 39.036 522.545 39.7758C522.826 42.1651 518.91 43.4213 517.01 41.5513C515.809 40.3684 515.814 40.3241 517.48 37.8592C518.252 36.7169 519.12 35.0827 519.408 34.2276L519.932 32.6732L521.276 34.9198C522.015 36.1558 522.623 37.3298 522.628 37.5292ZM455.455 34.0688C454.009 35.6412 453.13 38.5085 453.094 41.7714C453.054 45.3223 452.444 44.2571 452.364 40.4981C452.299 37.3944 454.232 33.2441 455.744 33.2441C456.002 33.2441 455.872 33.6151 455.455 34.0688ZM499.59 40.2129C500.697 40.2784 498.305 40.9873 496.786 41.0436C495.76 41.0819 495.418 40.7709 494.794 39.2345C493.646 36.4096 493.841 36.2988 496.426 38.3101C497.738 39.3314 499.162 40.1875 499.59 40.2129ZM492.657 41.6666C493.806 44.7749 494.121 44.858 498.349 43.1666C499.935 42.532 501.839 42.0128 502.58 42.0128C504.332 42.0128 506.021 43.6959 506.678 46.0962C507.626 49.5636 506.056 52.0437 504.28 49.8843C503.614 49.0753 503.415 49.0042 503.415 49.5765C503.415 50.596 505.008 52.0788 506.5 52.4471C509.214 53.1181 512.791 49.7242 512.791 46.4784V45.3689L514.98 46.4599C516.546 47.2408 517.957 47.5509 519.938 47.5509C522.373 47.5509 522.873 47.388 524.075 46.2051C524.827 45.4649 525.53 45.0006 525.639 45.1732C525.881 45.5586 526.676 50.158 527.066 53.4324C527.352 55.8313 527.345 55.8484 526.271 55.3661C524.578 54.6069 522.725 55.5355 521.857 57.5786C521.218 59.0859 521.197 60.0085 521.695 64.8502C522.008 67.9003 522.19 71.5379 522.099 72.934L521.932 75.4723L521.105 72.2417C518.406 61.7064 512.675 55.6426 501.672 51.6787C491.49 48.0101 489.548 46.5 489.638 42.3238C489.666 41.0104 489.952 39.3129 490.274 38.5515C490.944 36.9675 490.897 36.9062 492.657 41.6666ZM487.039 51.8199C488.689 54.0633 488.867 56.7368 487.51 58.9267C487.015 59.7265 484.955 61.7442 482.933 63.4107C478.609 66.9736 476.334 69.7703 474.332 73.9816C471.109 80.7621 472.3 89.3328 477.235 94.8659C480.709 98.761 487.008 99.7593 487.008 96.4147C487.008 95.4266 485.372 95.1973 484.946 96.1249C484.8 96.4424 484.731 96.2864 484.794 95.7788C484.928 94.6919 486.726 94.2816 487.737 95.1077C488.819 95.992 488.536 97.6931 487.125 98.7924C486.065 99.6181 485.438 99.7501 483.592 99.5378C475.584 98.6161 468.856 88.9683 469.829 79.8013C470.509 73.3992 473.501 68.8159 480.507 63.4476C486.318 58.995 487.656 57.2939 487.323 54.7865C487.193 53.8168 486.523 52.1836 485.833 51.1572C484.248 48.7979 485.201 49.3217 487.039 51.8199ZM526.784 57.4429C526.879 57.934 526.564 58.6369 526.085 59.0047C525.315 59.5963 525.31 59.642 526.034 59.396C526.701 59.1699 526.855 59.3882 526.855 60.565C526.855 62.8828 525.84 67.9704 525.462 67.5495C524.941 66.9694 523.859 57.916 524.205 57.0285C524.615 55.9767 526.56 56.2892 526.784 57.4429ZM501.946 62.088C506.628 63.9987 508.312 65.3071 508.729 67.3599C509.379 70.5604 506.766 74.2534 503.144 75.2517C501.444 75.7201 500.723 75.6994 498.971 75.1317C496.565 74.3522 496.337 74.6042 498.031 76.1706C499.735 77.7466 503.955 78.0028 506.571 76.6893C510.833 74.5483 512.996 70.1442 512.72 64.1653C512.558 60.6523 512.581 60.5604 513.423 61.3113C515.708 63.3466 517.487 68.1209 518.183 74.0878C518.636 77.9626 518.171 77.137 517.049 72.0719C516.524 69.7066 515.57 66.7008 514.928 65.3915L513.762 63.0115L514.097 64.8576C515.054 70.1303 514.027 73.941 510.84 76.9487C507.777 79.8386 502.933 80.7695 499.443 79.1395C497.486 78.2252 496.531 77.0068 496.097 74.8714L495.797 73.396L497.79 74.0878C501.682 75.4395 504.794 74.5137 506.699 71.4382C508.925 67.844 507.341 65.1894 501.706 63.0724C498.408 61.8333 495.58 59.6923 494.446 57.5754C494.136 56.9957 494.714 57.3732 495.776 58.4435C497.1 59.7782 498.92 60.853 501.946 62.088ZM494.179 61.2107C495.219 62.3511 497.506 63.9544 499.682 65.0689C504.816 67.6986 505.592 69.6143 502.319 71.5795C500.524 72.6566 498.823 72.7175 497.426 71.7539C496.124 70.8563 496.094 69.6425 497.347 68.5261C498.163 67.7988 498.457 67.7577 499.268 68.2561C500.651 69.1062 500.904 68.5344 499.535 67.6511C496.356 65.6006 492.714 70.8106 494.047 75.5C496.285 83.366 507.423 85.176 513.268 78.6235C514.069 77.7254 514.856 77.1208 515.017 77.2796C515.179 77.4383 515.311 78.8662 515.311 80.4525C515.311 82.7595 515.04 83.827 513.956 85.7866C512.407 88.5884 510.886 89.5484 507.996 89.5484C505.532 89.5484 503.773 88.4694 503.975 87.0807C504.096 86.2416 504.408 86.0967 505.977 86.1484L507.836 86.2098L506.746 85.3408C505.407 84.2738 503.513 84.2248 502.069 85.2203C501.19 85.8263 501.022 86.2878 501.182 87.6432C501.292 88.564 501.47 89.6217 501.578 89.9933C501.732 90.5217 501.023 90.7465 498.321 91.0247C495.266 91.339 494.715 91.273 493.545 90.4534C491.713 89.169 489.883 85.2517 489.103 80.9449C488.227 76.1046 488.235 67.4037 489.117 64.1653C489.498 62.7692 489.812 61.1239 489.815 60.5097C489.818 59.8949 490.187 58.9927 490.636 58.5049C491.411 57.6621 491.475 57.6589 491.925 58.4384C492.185 58.8898 493.2 60.1372 494.179 61.2107ZM450.666 62.3082C451.108 62.7891 452.452 63.6613 453.652 64.247C455.584 65.1898 456.516 65.3121 461.802 65.3154C468.049 65.3191 467.996 65.8037 461.693 66.3081C457.456 66.6468 453.471 65.9195 451.181 64.39L449.529 63.2861L448.994 65.2258C448.42 67.3031 448.696 72.9335 449.463 74.8225L449.914 75.9338L449.944 74.8336C449.998 72.8066 451.074 70.0906 452.359 68.737C454.595 66.3801 458.414 67.2362 459.14 70.2572C459.371 71.2195 459.167 71.771 458.243 72.6802C456.91 73.9927 456.159 74.1307 454.976 73.2801C454.282 72.7808 454.412 72.7032 455.941 72.7032C457.638 72.7032 457.708 72.6405 457.708 71.1382C457.708 69.0398 456.539 68.288 454.774 69.2511C451.739 70.9084 450.833 77.0248 452.963 81.4719C454.249 84.1556 455.315 85.1945 458.96 87.3119C461.446 88.7564 470.574 96.9325 469.701 96.9325C469.481 96.9325 467.537 95.3602 465.38 93.4384C463.223 91.5167 459.983 89.1805 458.179 88.2464C452.951 85.5406 449.381 81.3667 447.169 75.3735C445.645 71.2458 445.932 65.1202 447.834 61.1655L449.167 58.3964L449.515 59.9152C449.706 60.7506 450.225 61.8273 450.666 62.3082ZM442.915 64.1159C443.176 64.5968 443.603 66.8416 443.863 69.1044C444.398 73.7518 445.58 77.5066 447.639 81.0976C448.412 82.4457 448.967 83.5487 448.872 83.5487C448.506 83.5487 445.287 78.4518 443.74 75.4225C442.846 73.6729 441.682 70.8193 441.154 69.0808C440.226 66.0316 440.223 65.9278 441.07 66.1461C441.807 66.3358 441.865 66.2412 441.433 65.5604C440.878 64.6845 441.213 63.2423 441.973 63.2423C442.23 63.2423 442.654 63.6355 442.915 64.1159ZM484.301 67.52C483.461 70.9795 483.678 72.7023 485.594 77.7798C486.632 80.53 486.714 84.1381 485.806 87.1301C485.544 87.9926 485.724 88.2543 486.844 88.6383C487.589 88.8939 488.446 89.4934 488.749 89.9706C489.277 90.8023 489.2 90.8143 486.864 90.2646C474.169 87.2777 472.313 78.785 481.884 67.4752C483.459 65.6149 484.817 64.1621 484.903 64.247C484.989 64.3319 484.719 65.8046 484.301 67.52ZM504.15 89.4902C504.855 90.0362 506.271 90.6149 507.296 90.7764L509.162 91.07L508.046 91.9261C504.856 94.3748 497.349 97.6954 493.28 98.4574C491.839 98.7273 491.818 98.7043 491.865 96.9371C491.982 92.5159 485.857 90.7455 483.864 94.625C483.414 95.5019 483.27 95.5798 483.264 94.9503C483.245 92.6368 487.591 90.7557 490.353 91.8818C491.96 92.5371 493.566 94.7597 493.569 96.3307C493.571 97.3368 493.589 97.3391 496.028 96.6256C500.255 95.3902 507.721 91.3944 505.803 91.3944C504.823 91.3944 502.009 88.5137 502.038 87.5389L502.068 86.5485L502.468 87.5233C502.688 88.0591 503.445 88.9442 504.15 89.4902ZM457.899 114.621C456.763 115.211 455.2 116.579 454.427 117.66C453.196 119.38 453.021 120.021 453.021 122.777C453.021 125.542 453.195 126.172 454.447 127.925C456.432 130.707 458.906 131.99 462.298 132C471.193 132.024 475.603 121.84 469.173 116.122C466.807 114.017 465.577 113.547 462.439 113.547C460.754 113.547 459.307 113.889 457.899 114.621ZM468.051 115.875C469.873 117.551 470.6 119.23 470.6 121.759C470.6 124.563 469.11 127.489 466.707 129.404C464.508 131.156 460.388 131.637 457.997 130.42C453.536 128.149 453.183 121.079 457.337 117.181C459.966 114.714 460.687 114.43 463.905 114.594C466.225 114.712 467.071 114.974 468.051 115.875ZM473.413 123.008C473.413 130.831 473.481 131.546 474.233 131.546C474.984 131.546 475.054 130.849 475.054 123.354V115.162L476.4 115.011C479.382 114.675 481.382 115.953 481.382 118.195C481.382 119.851 479.913 121.393 478.335 121.393C477.691 121.393 477.163 121.55 477.163 121.743C477.163 121.935 478.376 123.876 479.859 126.055C481.341 128.234 482.77 130.385 483.035 130.835C483.299 131.285 483.889 131.577 484.346 131.484C485.028 131.345 484.582 130.47 481.845 126.585C479.721 123.569 478.765 121.854 479.208 121.854C479.591 121.854 480.553 121.316 481.346 120.659C483.257 119.076 483.346 116.815 481.553 115.427C480.558 114.655 479.649 114.47 476.865 114.47H473.413V123.008ZM486.07 123.008C486.07 130.29 486.174 131.546 486.773 131.546C487.373 131.546 487.476 130.29 487.476 123.008C487.476 115.726 487.373 114.47 486.773 114.47C486.174 114.47 486.07 115.726 486.07 123.008ZM490.758 123.008V131.546H493.165C496.515 131.546 499.05 130.696 500.396 129.122C502.541 126.611 501.491 123.356 498.167 122.215L496.79 121.742L498.215 120.89C498.999 120.421 499.77 119.526 499.929 118.902C500.67 115.995 498.571 114.47 493.829 114.47H490.758V123.008ZM502.946 123.008V131.546H508.103C510.939 131.546 513.26 131.366 513.26 131.146C513.26 130.926 511.818 130.848 510.055 130.972C505.126 131.319 504.822 131.026 504.822 125.936V121.743L507.634 121.944C509.181 122.053 510.447 121.975 510.447 121.768C510.447 121.562 509.181 121.393 507.634 121.393H504.822V118.112V114.83L508.338 115.005C510.271 115.101 511.853 115.021 511.853 114.825C511.853 114.63 509.849 114.47 507.4 114.47H502.946V123.008ZM497.216 115.65C497.943 116.151 498.259 116.84 498.259 117.924C498.259 119.962 496.492 121.393 493.976 121.393H492.164V118.47C492.164 116.862 492.305 115.408 492.477 115.239C493.064 114.661 496.173 114.93 497.216 115.65ZM497.79 122.913C499.53 123.78 500.205 125.482 499.627 127.545C498.988 129.823 497.511 130.713 494.666 130.534L492.399 130.392L492.263 126.354L492.128 122.316L494.373 122.323C495.608 122.326 497.145 122.592 497.79 122.913Z" fill="white"/>
</g>
</svg>
